<mxfile host="app.diagrams.net" modified="2020-08-13T03:21:48.650Z" agent="5.0 (Windows NT 10.0; Win64; x64) AppleWebKit/537.36 (KHTML, like Gecko) Chrome/84.0.4147.125 Safari/537.36" etag="_UvbAG0WtY5LkjlNUGll" version="13.6.2" type="github">
  <diagram name="Page-1" id="e7e014a7-5840-1c2e-5031-d8a46d1fe8dd">
    <mxGraphModel dx="866" dy="490" grid="1" gridSize="10" guides="1" tooltips="1" connect="1" arrows="1" fold="1" page="1" pageScale="1" pageWidth="1169" pageHeight="826" background="#ffffff" math="0" shadow="0">
      <root>
        <mxCell id="0" />
        <mxCell id="1" parent="0" />
        <mxCell id="dK8uaiw6ug3XlY_nwCqH-57" value="" style="endArrow=block;dashed=1;endFill=0;endSize=12;html=1;exitX=0.5;exitY=0;exitDx=0;exitDy=0;entryX=0.5;entryY=1;entryDx=0;entryDy=0;" edge="1" parent="1" source="dK8uaiw6ug3XlY_nwCqH-50" target="dK8uaiw6ug3XlY_nwCqH-41">
          <mxGeometry width="160" relative="1" as="geometry">
            <mxPoint x="305" y="180" as="sourcePoint" />
            <mxPoint x="600" y="150" as="targetPoint" />
            <Array as="points">
              <mxPoint x="590" y="170" />
            </Array>
          </mxGeometry>
        </mxCell>
        <mxCell id="dK8uaiw6ug3XlY_nwCqH-58" value="" style="endArrow=block;dashed=1;endFill=0;endSize=12;html=1;exitX=0.5;exitY=0;exitDx=0;exitDy=0;entryX=-0.019;entryY=0.833;entryDx=0;entryDy=0;entryPerimeter=0;" edge="1" parent="1" source="dK8uaiw6ug3XlY_nwCqH-54" target="dK8uaiw6ug3XlY_nwCqH-42">
          <mxGeometry width="160" relative="1" as="geometry">
            <mxPoint x="465" y="230" as="sourcePoint" />
            <mxPoint x="560" y="130" as="targetPoint" />
            <Array as="points">
              <mxPoint x="420" y="106" />
            </Array>
          </mxGeometry>
        </mxCell>
        <mxCell id="dK8uaiw6ug3XlY_nwCqH-41" value="Account" style="swimlane;fontStyle=1;align=center;verticalAlign=top;childLayout=stackLayout;horizontal=1;startSize=26;horizontalStack=0;resizeParent=1;resizeParentMax=0;resizeLast=0;collapsible=1;marginBottom=0;" vertex="1" parent="1">
          <mxGeometry x="510" y="10" width="160" height="118" as="geometry" />
        </mxCell>
        <mxCell id="dK8uaiw6ug3XlY_nwCqH-42" value="id&#xa;Nombre&#xa;Apellidos&#xa;Teléfono&#xa;Dirección &#xa;" style="text;strokeColor=none;fillColor=none;align=left;verticalAlign=top;spacingLeft=4;spacingRight=4;overflow=hidden;rotatable=0;points=[[0,0.5],[1,0.5]];portConstraint=eastwest;" vertex="1" parent="dK8uaiw6ug3XlY_nwCqH-41">
          <mxGeometry y="26" width="160" height="84" as="geometry" />
        </mxCell>
        <mxCell id="dK8uaiw6ug3XlY_nwCqH-43" value="" style="line;strokeWidth=1;fillColor=none;align=left;verticalAlign=middle;spacingTop=-1;spacingLeft=3;spacingRight=3;rotatable=0;labelPosition=right;points=[];portConstraint=eastwest;" vertex="1" parent="dK8uaiw6ug3XlY_nwCqH-41">
          <mxGeometry y="110" width="160" height="8" as="geometry" />
        </mxCell>
        <mxCell id="dK8uaiw6ug3XlY_nwCqH-75" value="" style="endArrow=block;dashed=1;endFill=0;endSize=12;html=1;exitX=0.5;exitY=0;exitDx=0;exitDy=0;entryX=0;entryY=0.5;entryDx=0;entryDy=0;" edge="1" parent="1" source="dK8uaiw6ug3XlY_nwCqH-67" target="dK8uaiw6ug3XlY_nwCqH-64">
          <mxGeometry width="160" relative="1" as="geometry">
            <mxPoint x="460" y="680" as="sourcePoint" />
            <mxPoint x="530" y="600" as="targetPoint" />
            <Array as="points">
              <mxPoint x="290" y="550" />
            </Array>
          </mxGeometry>
        </mxCell>
        <mxCell id="dK8uaiw6ug3XlY_nwCqH-76" value="" style="endArrow=block;dashed=1;endFill=0;endSize=12;html=1;exitX=0.5;exitY=0;exitDx=0;exitDy=0;entryX=1;entryY=0.5;entryDx=0;entryDy=0;" edge="1" parent="1" source="dK8uaiw6ug3XlY_nwCqH-73" target="dK8uaiw6ug3XlY_nwCqH-64">
          <mxGeometry width="160" relative="1" as="geometry">
            <mxPoint x="460" y="680" as="sourcePoint" />
            <mxPoint x="620" y="680" as="targetPoint" />
            <Array as="points">
              <mxPoint x="910" y="548" />
            </Array>
          </mxGeometry>
        </mxCell>
        <mxCell id="dK8uaiw6ug3XlY_nwCqH-77" value="" style="endArrow=block;dashed=1;endFill=0;endSize=12;html=1;exitX=0.5;exitY=0;exitDx=0;exitDy=0;" edge="1" parent="1" source="dK8uaiw6ug3XlY_nwCqH-71">
          <mxGeometry width="160" relative="1" as="geometry">
            <mxPoint x="460" y="680" as="sourcePoint" />
            <mxPoint x="550" y="600" as="targetPoint" />
          </mxGeometry>
        </mxCell>
        <mxCell id="dK8uaiw6ug3XlY_nwCqH-78" value="" style="endArrow=block;dashed=1;endFill=0;endSize=12;html=1;exitX=0.5;exitY=0;exitDx=0;exitDy=0;entryX=0.75;entryY=1;entryDx=0;entryDy=0;" edge="1" parent="1" source="dK8uaiw6ug3XlY_nwCqH-72" target="dK8uaiw6ug3XlY_nwCqH-63">
          <mxGeometry width="160" relative="1" as="geometry">
            <mxPoint x="460" y="680" as="sourcePoint" />
            <mxPoint x="620" y="680" as="targetPoint" />
          </mxGeometry>
        </mxCell>
        <mxCell id="dK8uaiw6ug3XlY_nwCqH-79" value="" style="endArrow=block;dashed=1;endFill=0;endSize=12;html=1;exitX=0.5;exitY=0;exitDx=0;exitDy=0;" edge="1" parent="1" source="dK8uaiw6ug3XlY_nwCqH-74">
          <mxGeometry width="160" relative="1" as="geometry">
            <mxPoint x="460" y="680" as="sourcePoint" />
            <mxPoint x="595" y="598" as="targetPoint" />
          </mxGeometry>
        </mxCell>
        <mxCell id="dK8uaiw6ug3XlY_nwCqH-97" value="" style="endArrow=block;dashed=1;endFill=0;endSize=12;html=1;exitX=0.5;exitY=0;exitDx=0;exitDy=0;entryX=1.019;entryY=0.798;entryDx=0;entryDy=0;entryPerimeter=0;" edge="1" parent="1" source="dK8uaiw6ug3XlY_nwCqH-80" target="dK8uaiw6ug3XlY_nwCqH-42">
          <mxGeometry width="160" relative="1" as="geometry">
            <mxPoint x="630" y="270" as="sourcePoint" />
            <mxPoint x="790" y="270" as="targetPoint" />
            <Array as="points">
              <mxPoint x="750" y="103" />
            </Array>
          </mxGeometry>
        </mxCell>
        <mxCell id="dK8uaiw6ug3XlY_nwCqH-80" value="Casa de Adopción" style="swimlane;fontStyle=0;childLayout=stackLayout;horizontal=1;startSize=26;fillColor=none;horizontalStack=0;resizeParent=1;resizeParentMax=0;resizeLast=0;collapsible=1;marginBottom=0;" vertex="1" parent="1">
          <mxGeometry x="680" y="200" width="140" height="70" as="geometry" />
        </mxCell>
        <mxCell id="dK8uaiw6ug3XlY_nwCqH-54" value="Adoptante" style="swimlane;fontStyle=0;childLayout=stackLayout;horizontal=1;startSize=26;fillColor=none;horizontalStack=0;resizeParent=1;resizeParentMax=0;resizeLast=0;collapsible=1;marginBottom=0;" vertex="1" parent="1">
          <mxGeometry x="350" y="200" width="140" height="70" as="geometry" />
        </mxCell>
        <mxCell id="dK8uaiw6ug3XlY_nwCqH-50" value="Cuidador" style="swimlane;fontStyle=0;childLayout=stackLayout;horizontal=1;startSize=26;fillColor=none;horizontalStack=0;resizeParent=1;resizeParentMax=0;resizeLast=0;collapsible=1;marginBottom=0;" vertex="1" parent="1">
          <mxGeometry x="520" y="200" width="140" height="70" as="geometry" />
        </mxCell>
        <mxCell id="dK8uaiw6ug3XlY_nwCqH-82" value="Certificado de Adopción" style="swimlane;fontStyle=0;childLayout=stackLayout;horizontal=1;startSize=26;fillColor=none;horizontalStack=0;resizeParent=1;resizeParentMax=0;resizeLast=0;collapsible=1;marginBottom=0;" vertex="1" parent="1">
          <mxGeometry x="520" y="310" width="140" height="70" as="geometry" />
        </mxCell>
        <mxCell id="dK8uaiw6ug3XlY_nwCqH-102" value="" style="endArrow=diamondThin;endFill=1;endSize=24;html=1;exitX=0.5;exitY=1;exitDx=0;exitDy=0;entryX=0;entryY=0.5;entryDx=0;entryDy=0;" edge="1" parent="1" source="dK8uaiw6ug3XlY_nwCqH-54" target="dK8uaiw6ug3XlY_nwCqH-82">
          <mxGeometry width="160" relative="1" as="geometry">
            <mxPoint x="460" y="270" as="sourcePoint" />
            <mxPoint x="620" y="270" as="targetPoint" />
            <Array as="points">
              <mxPoint x="420" y="345" />
            </Array>
          </mxGeometry>
        </mxCell>
        <mxCell id="dK8uaiw6ug3XlY_nwCqH-103" value="" style="endArrow=diamondThin;endFill=1;endSize=24;html=1;entryX=0.5;entryY=0;entryDx=0;entryDy=0;exitX=0.5;exitY=1;exitDx=0;exitDy=0;" edge="1" parent="1" source="dK8uaiw6ug3XlY_nwCqH-50" target="dK8uaiw6ug3XlY_nwCqH-82">
          <mxGeometry width="160" relative="1" as="geometry">
            <mxPoint x="650" y="300" as="sourcePoint" />
            <mxPoint x="620" y="270" as="targetPoint" />
          </mxGeometry>
        </mxCell>
        <mxCell id="dK8uaiw6ug3XlY_nwCqH-104" value="" style="endArrow=diamondThin;endFill=1;endSize=24;html=1;entryX=1;entryY=0.5;entryDx=0;entryDy=0;exitX=0.5;exitY=1;exitDx=0;exitDy=0;" edge="1" parent="1" source="dK8uaiw6ug3XlY_nwCqH-80" target="dK8uaiw6ug3XlY_nwCqH-82">
          <mxGeometry width="160" relative="1" as="geometry">
            <mxPoint x="460" y="270" as="sourcePoint" />
            <mxPoint x="620" y="270" as="targetPoint" />
            <Array as="points">
              <mxPoint x="750" y="345" />
            </Array>
          </mxGeometry>
        </mxCell>
        <mxCell id="dK8uaiw6ug3XlY_nwCqH-105" value="" style="endArrow=diamondThin;endFill=1;endSize=24;html=1;exitX=0.5;exitY=0;exitDx=0;exitDy=0;entryX=0.5;entryY=1;entryDx=0;entryDy=0;" edge="1" parent="1" source="dK8uaiw6ug3XlY_nwCqH-63" target="dK8uaiw6ug3XlY_nwCqH-82">
          <mxGeometry width="160" relative="1" as="geometry">
            <mxPoint x="460" y="370" as="sourcePoint" />
            <mxPoint x="600" y="380" as="targetPoint" />
          </mxGeometry>
        </mxCell>
        <mxCell id="dK8uaiw6ug3XlY_nwCqH-63" value="Mascotas" style="swimlane;fontStyle=1;align=center;verticalAlign=top;childLayout=stackLayout;horizontal=1;startSize=26;horizontalStack=0;resizeParent=1;resizeParentMax=0;resizeLast=0;collapsible=1;marginBottom=0;" vertex="1" parent="1">
          <mxGeometry x="515" y="480" width="160" height="118" as="geometry" />
        </mxCell>
        <mxCell id="dK8uaiw6ug3XlY_nwCqH-64" value="Id&#xa;Color&#xa;Raza&#xa;Sexo&#xa;Tamaño&#xa;" style="text;strokeColor=none;fillColor=none;align=left;verticalAlign=top;spacingLeft=4;spacingRight=4;overflow=hidden;rotatable=0;points=[[0,0.5],[1,0.5]];portConstraint=eastwest;" vertex="1" parent="dK8uaiw6ug3XlY_nwCqH-63">
          <mxGeometry y="26" width="160" height="84" as="geometry" />
        </mxCell>
        <mxCell id="dK8uaiw6ug3XlY_nwCqH-65" value="" style="line;strokeWidth=1;fillColor=none;align=left;verticalAlign=middle;spacingTop=-1;spacingLeft=3;spacingRight=3;rotatable=0;labelPosition=right;points=[];portConstraint=eastwest;" vertex="1" parent="dK8uaiw6ug3XlY_nwCqH-63">
          <mxGeometry y="110" width="160" height="8" as="geometry" />
        </mxCell>
        <mxCell id="dK8uaiw6ug3XlY_nwCqH-74" value="Loro" style="swimlane;fontStyle=0;childLayout=stackLayout;horizontal=1;startSize=26;fillColor=none;horizontalStack=0;resizeParent=1;resizeParentMax=0;resizeLast=0;collapsible=1;marginBottom=0;" vertex="1" parent="1">
          <mxGeometry x="530" y="690" width="140" height="70" as="geometry" />
        </mxCell>
        <mxCell id="dK8uaiw6ug3XlY_nwCqH-67" value="Perro" style="swimlane;fontStyle=0;childLayout=stackLayout;horizontal=1;startSize=26;fillColor=none;horizontalStack=0;resizeParent=1;resizeParentMax=0;resizeLast=0;collapsible=1;marginBottom=0;" vertex="1" parent="1">
          <mxGeometry x="220" y="690" width="140" height="70" as="geometry" />
        </mxCell>
        <mxCell id="dK8uaiw6ug3XlY_nwCqH-71" value="Gato" style="swimlane;fontStyle=0;childLayout=stackLayout;horizontal=1;startSize=26;fillColor=none;horizontalStack=0;resizeParent=1;resizeParentMax=0;resizeLast=0;collapsible=1;marginBottom=0;" vertex="1" parent="1">
          <mxGeometry x="375" y="690" width="140" height="70" as="geometry" />
        </mxCell>
        <mxCell id="dK8uaiw6ug3XlY_nwCqH-73" value="Hamster" style="swimlane;fontStyle=0;childLayout=stackLayout;horizontal=1;startSize=26;fillColor=none;horizontalStack=0;resizeParent=1;resizeParentMax=0;resizeLast=0;collapsible=1;marginBottom=0;" vertex="1" parent="1">
          <mxGeometry x="840" y="690" width="140" height="70" as="geometry" />
        </mxCell>
        <mxCell id="dK8uaiw6ug3XlY_nwCqH-72" value="Perico" style="swimlane;fontStyle=0;childLayout=stackLayout;horizontal=1;startSize=26;fillColor=none;horizontalStack=0;resizeParent=1;resizeParentMax=0;resizeLast=0;collapsible=1;marginBottom=0;" vertex="1" parent="1">
          <mxGeometry x="690" y="690" width="140" height="70" as="geometry" />
        </mxCell>
      </root>
    </mxGraphModel>
  </diagram>
</mxfile>
